<svg id="Layer_1" data-name="Layer 1" xmlns="http://www.w3.org/2000/svg" xmlns:xlink="http://www.w3.org/1999/xlink" viewBox="0 0 120.44 33.98"><defs><style>.cls-1{fill:none;}.cls-2{clip-path:url(#clip-path);}.cls-3{fill:#fff;}</style><clipPath id="clip-path" transform="translate(-630.78 -219.02)"><rect class="cls-1" x="614.78" y="126.65" width="136.44" height="515.7"/></clipPath></defs><title>logo_footer</title><g class="cls-2"><path class="cls-3" d="M643.28,237.08a6.81,6.81,0,0,1-.78,0,6.39,6.39,0,1,1,0-12.78,6.81,6.81,0,0,1,.78.05v-5.35l-.78,0a11.72,11.72,0,1,0,0,23.43q.39,0,.78,0Z" transform="translate(-630.78 -219.02)"/></g><rect class="cls-3" x="20.37" y="28.76" width="18.1" height="5.22"/><g class="cls-2"><path class="cls-3" d="M660.21,237.24a6.5,6.5,0,1,1,6.5-6.5,6.5,6.5,0,0,1-6.5,6.5m0-18.22a11.72,11.72,0,1,0,11.71,11.72A11.72,11.72,0,0,0,660.21,219" transform="translate(-630.78 -219.02)"/><path class="cls-3" d="M686.9,220.25a5,5,0,0,1,3.25,1.14l-1,1.33a3.33,3.33,0,0,0-2.16-.83,2.68,2.68,0,0,0-2.76,2.94,2.73,2.73,0,0,0,2.76,3,3.05,3.05,0,0,0,2.21-.94l1.15,1.23a4.82,4.82,0,0,1-3.47,1.35,4.64,4.64,0,1,1,.07-9.27" transform="translate(-630.78 -219.02)"/><path class="cls-3" d="M695,219.4l1.25.83-1.71,1.55h-1.18Zm-2.2,5.81h2.78c0-.87-.34-1.53-1.23-1.53s-1.37.54-1.55,1.53m1.5-2.89a2.88,2.88,0,0,1,3.06,3.14,5.15,5.15,0,0,1-.07.83h-4.53c.1,1.16.65,1.74,1.69,1.74a3.61,3.61,0,0,0,1.91-.59l.78,1.19a4.9,4.9,0,0,1-2.83.9,3.61,3.61,0,0,1,0-7.21" transform="translate(-630.78 -219.02)"/><path class="cls-3" d="M702.52,224.84a1.18,1.18,0,1,0-1.18,1.27,1.16,1.16,0,0,0,1.18-1.27m-2.23,4.57a.87.87,0,0,0-.47.76c0,.49.47.72,1.66.72s1.84-.21,1.84-.64-.38-.61-1.66-.66a5.42,5.42,0,0,1-1.37-.18m-1.23-.59a1.2,1.2,0,0,1-.42-.92,1.33,1.33,0,0,1,.73-1.14,2.27,2.27,0,0,1-1-1.92c0-1.51,1.28-2.51,3-2.51a3.33,3.33,0,0,1,2,.59,3,3,0,0,1,1.94-.59v1.25a4.54,4.54,0,0,0-1.23.12,2.4,2.4,0,0,1,.28,1.14,2.68,2.68,0,0,1-2.95,2.51,4.09,4.09,0,0,1-1.05-.14.41.41,0,0,0-.27.39c0,.33.43.46,1.87.51,2,.07,3.15.63,3.15,1.93s-1.11,2-3.5,2c-2.18,0-3.47-.6-3.47-1.8a1.61,1.61,0,0,1,1-1.43" transform="translate(-630.78 -219.02)"/><path class="cls-3" d="M707.57,225.21h2.77c0-.87-.33-1.53-1.22-1.53s-1.37.54-1.55,1.53m1.49-2.89a2.87,2.87,0,0,1,3.06,3.14,5.21,5.21,0,0,1-.06.83h-4.53c.1,1.16.65,1.74,1.69,1.74a3.61,3.61,0,0,0,1.91-.59l.78,1.19a4.9,4.9,0,0,1-2.83.9,3.61,3.61,0,0,1,0-7.21" transform="translate(-630.78 -219.02)"/><path class="cls-3" d="M716.7,228.08c.91,0,1.35-.88,1.35-2.23s-.44-2.08-1.35-2.08a1.84,1.84,0,0,0-1.42.72v2.91a1.76,1.76,0,0,0,1.42.68m-1.42,3.84h-1.86v-9.43h1.69l.14.83a2.67,2.67,0,0,1,2-1c1.59,0,2.66,1.19,2.66,3.51s-1.09,3.68-2.62,3.68a2.74,2.74,0,0,1-2-.89Z" transform="translate(-630.78 -219.02)"/><path class="cls-3" d="M728.58,227.4v-2.91a1.84,1.84,0,0,0-1.42-.72c-.91,0-1.35.73-1.35,2.09s.44,2.22,1.35,2.22a1.76,1.76,0,0,0,1.42-.68m-4.65-1.56c0-2.32,1.08-3.51,2.68-3.51a2.68,2.68,0,0,1,2,.93V219.7h1.88v9.66H728.8l-.12-.8a2.82,2.82,0,0,1-2.11,1c-1.55,0-2.64-1.26-2.64-3.68" transform="translate(-630.78 -219.02)"/><path class="cls-3" d="M733.66,225.21h2.78c0-.87-.33-1.53-1.23-1.53a1.62,1.62,0,0,0-1.55,1.53m1.5-2.89a2.88,2.88,0,0,1,3.06,3.14,5.21,5.21,0,0,1-.06.83h-4.53c.1,1.16.65,1.74,1.69,1.74a3.55,3.55,0,0,0,1.9-.59l.78,1.19a4.85,4.85,0,0,1-2.82.9,3.61,3.61,0,0,1,0-7.21" transform="translate(-630.78 -219.02)"/></g><rect class="cls-3" x="51.74" y="13.48" width="1.88" height="9.67"/><g class="cls-2"><path class="cls-3" d="M685.81,233.21h2v1.49a2.2,2.2,0,0,1-1.66,2.39l-.38-.72a1.27,1.27,0,0,0,.94-1.21h-.85Z" transform="translate(-630.78 -219.02)"/><path class="cls-3" d="M693.26,240.68a3,3,0,1,0-2.67-3,2.72,2.72,0,0,0,2.67,3m0-7.63a4.64,4.64,0,1,1-4.64,4.61,4.45,4.45,0,0,1,4.64-4.61" transform="translate(-630.78 -219.02)"/><path class="cls-3" d="M699.18,235.29h1.88v4.59c0,.61.22,1,.88,1a2,2,0,0,0,1.5-.78v-4.84h1.88v6.88h-1.74l-.11-.8a3,3,0,0,1-2.1.95c-1.55,0-2.19-.93-2.19-2.48Z" transform="translate(-630.78 -219.02)"/><path class="cls-3" d="M707.39,236.62H706.3v-1.33h1.09v-1.71h1.88v1.71h1.88v1.33h-1.88V240c0,.51.19.77.63.77a1.55,1.55,0,0,0,.93-.31l.69,1.13a3.32,3.32,0,0,1-2,.69c-1.43,0-2.12-.7-2.12-2.24Z" transform="translate(-630.78 -219.02)"/><path class="cls-3" d="M714.84,241a1.72,1.72,0,0,0,1.31-.58v-1.32c-1.07.07-2.1.34-2.1,1.21a.71.71,0,0,0,.79.69m1.31-2.93v-.61c0-.51-.3-.82-.95-.82a5.24,5.24,0,0,0-2.19.68l-.67-1.38a6.93,6.93,0,0,1,2.93-.78c2,0,2.74,1,2.74,2.37v2.87c0,.37.22.53.57.53v1.3c-1.3,0-1.83-.2-2.22-.85a2.7,2.7,0,0,1-2.13,1,1.85,1.85,0,0,1-2.05-1.82c0-1.49,1.42-2.28,4-2.45" transform="translate(-630.78 -219.02)"/><path class="cls-3" d="M722.84,240.91c1,0,1.54-.88,1.54-2.24s-.62-2.11-1.54-2.11-1.57.85-1.57,2.11.56,2.24,1.57,2.24m0-5.77a3.59,3.59,0,1,1-3.47,3.52,3.33,3.33,0,0,1,3.47-3.52" transform="translate(-630.78 -219.02)"/><path class="cls-3" d="M727.5,235.29h1.89v4.59c0,.61.21,1,.88,1a2,2,0,0,0,1.5-.78v-4.84h1.88v6.88h-1.74l-.12-.8a3,3,0,0,1-2.1.95c-1.55,0-2.19-.93-2.19-2.48Z" transform="translate(-630.78 -219.02)"/><path class="cls-3" d="M737.58,241a1.72,1.72,0,0,0,1.31-.58v-1.32c-1.07.07-2.1.34-2.1,1.21a.71.71,0,0,0,.79.69m1.31-2.93v-.61c0-.51-.3-.82-.95-.82a5.28,5.28,0,0,0-2.19.68l-.66-1.38a6.9,6.9,0,0,1,2.93-.78c2,0,2.74,1,2.74,2.37v2.87c0,.37.21.53.56.53v1.3c-1.29,0-1.83-.2-2.21-.85a2.73,2.73,0,0,1-2.14,1,1.85,1.85,0,0,1-2.05-1.82c0-1.49,1.42-2.28,4-2.45" transform="translate(-630.78 -219.02)"/></g><path class="cls-3" d="M742.47,235.4h1.89v6.77h-1.89Zm0-2.83h1.89v1.61h-1.89Z" transform="translate(-630.78 -219.02)"/><g class="cls-2"><path class="cls-3" d="M746.26,240.27a4.41,4.41,0,0,0,2.13.63c.64,0,1-.2,1-.65,0-1.17-3.71-.4-3.71-3,0-1.4,1.27-2.14,2.73-2.14a6,6,0,0,1,2.56.6l-.67,1.31a4.77,4.77,0,0,0-1.87-.49c-.56,0-.92.22-.92.64,0,1.14,3.69.33,3.69,2.93,0,1.42-1.18,2.19-2.81,2.19a5.91,5.91,0,0,1-2.86-.74Z" transform="translate(-630.78 -219.02)"/></g></svg>